<svg xmlns="http://www.w3.org/2000/svg" width="1333.333" height="1333.333" viewBox="0 0 1000 1000" xmlns:v="https://vecta.io/nano"><path fill="#fed250" d="M375.58 95.35c50.55-13.48 103.28-18.41 155.48-15.31 81.03 4.71 160.67 30.33 229.5 73.32 62.77 39.02 116.65 92.1 157 154 33.62 51.45 57.92 108.93 71.46 168.87 5.38 24.39 9.61 49.14 10.98 74.09v85.36c-1.29 23.35-5.18 46.5-10.02 69.36-17.11 78.79-52.93 153.47-103.84 216.01-256.72-.08-513.44.04-770.16-.06C64.4 857.44 28.06 781.57 11.3 701.43 4.29 668.64.71 635.17 0 601.66v-15.38c.95-75.14 17.96-150.12 50.31-217.99 29.77-62.77 72.3-119.51 124.52-165.36 57.41-50.7 126.63-88.08 200.75-107.58M653.19 208.2c-17.14 1.41-33.11 10.87-43.47 24.46-16.99 21.72-18.82 53.74-4.8 77.42 8.64 14.87 23.27 26.47 40.17 30.27 16.83 4.09 35.29.26 49.24-9.95 20.52-14.55 30.95-41.26 26.98-65.93-2.63-18.46-13.09-35.81-28.68-46.17-11.46-7.73-25.66-11.57-39.44-10.1m-192.33 13.84c-5.03 28.72-.24 59.03 13.13 84.92 1.42 3.35 3.68 6.37 4.68 9.87-17.73 35.91-45.29 68.09-81.4 86.37-18.38 9.37-38.68 14.68-59.21 16.31-31.22 1.76-63.02-.23-93.06-9.41-23.69-7.23-46.64-19.09-63.5-37.57-6.9-7.85-13.16-16.99-14.65-27.57-.09-3.59-5.13-5.41-7.44-2.6-3.53 5.09-3.9 11.61-3.73 17.62.63 12.58 4.8 24.76 10.31 36 12.37 24.85 31.98 45.42 53.98 62.03 22.96 17.71 42.96 39.57 57.13 64.96 18.44 33.02 27.15 71.9 22.25 109.56l-45.18 194.4c-1.75 4.81 5.9 7.88 8.04 3.32l99.36-163.86c1.09-2 3.46-.73 3.95 1.04l86.9 161.17c1.45 3.67 7.23 3.09 8.12-.64.4-3.7-.94-7.32-1.52-10.93l-51.13-268.29c.39-15.25-.09-30.88 4.2-45.71 2.85-10.92 6.27-21.73 10.87-32.05 2.49-5.31 5-10.74 8.99-15.12 6.96-8 13.97-15.98 20.57-24.29 19.69-24.47 35.98-51.88 46.27-81.63 15.91 23.97 34.26 46.33 54.81 66.47 7.14 7.19 10.68 17.04 13.27 26.64 5.43 21.86 5.28 44.55 4.93 66.92-.81 20.79-2.64 41.52-5.2 62.17-5.98 47.98-15 95.54-25.33 142.76-8.82 40.31-18.77 80.36-29.67 120.16-1.54 3.36 3.01 6.68 5.77 4.34 1.69-1.8 2.59-4.17 3.83-6.27l97.52-179.49c.66-2.14 2.77-1.26 3.39.4l109.84 165.98c1.65 2.37 2.94 5.09 5.17 6.99 3.02 1.3 6.62-1.87 5.11-5.01l-47.98-160.27c-2.53-6.94-2.53-14.43-2.94-21.71-1.97-40.52 2.29-81.07 8.7-121.05 3.31-18.56 6.59-37.19 11.58-55.39 5.08-13.18 17.2-21.87 28.6-29.34 28.52-16.36 56.83-34.42 78.68-59.36 11.03-12.81 20.06-28.01 22.66-44.93 1.87-11.03.67-22.28-1.35-33.19-.24-1.72-1.38-3.42-3.25-3.55-2.28-.49-4.1 1.51-4.44 3.6-6.53 22.88-20.68 43.63-40.09 57.5-16.54 11.93-36.34 18.8-56.44 21.62-25.91 3.8-52.32 1.59-77.97-3.04-21.4-4.01-42.51-9.67-62.87-17.4-30.17-11.47-58.87-27.95-81.69-50.99-1.3-1.41-2.96-2.6-3.75-4.38 1.14-16.65 1.56-33.51-.75-50.08-.71-4.39-7.81-4.03-8.45.26-1.36 10.13-3.74 20.1-6.83 29.84-1.52-1.79-2.88-3.7-4.04-5.73-9.95-16.08-17.08-33.92-20.68-52.49-.4-1.78-.79-4.24-2.94-4.64-2.85-.82-5.05 2.18-5.13 4.76m-152.74 75.17c-12.45 2.15-23.94 9.24-31.54 19.31-7.22 9.48-10.98 21.56-10.29 33.47.73 14.7 8.29 28.86 20.05 37.7 10.82 8.27 25.09 11.94 38.54 9.72 15.64-2.2 29.77-12.42 37.15-26.33 5.68-10.61 7.39-23.27 4.71-34.99-3.02-13.91-12.27-26.31-24.74-33.17-10.17-5.81-22.38-7.74-33.88-5.71m38.79 539.08c-26.22 6.79-52.96 11.5-79.89 14.25-33.17 3.28-66.68 4.25-99.9 1.17l-29.06 31.94-.54-.08c-.32 2.39-.39 4.82-.26 7.25l69.7.25 657.49.4c.36-2.59.32-5.2-.04-7.78l-.45.08-29.36-32.03c-19.13 1.86-38.38 2.07-57.58 1.6-33.29-1.07-66.53-4.76-99.13-11.69-13.35-2.61-26.35-6.81-39.8-8.9-14.87-2.61-30.07-3.02-45.11-2.01-33.24 2.74-66.09 14.81-91.98 36.06-25.39-20.83-57.49-32.84-90.05-35.89-21.45-1.84-43.19-.01-64.04 5.38z"/><g fill="#fdf8e4"><path d="M653.19 208.2c13.78-1.47 27.98 2.37 39.44 10.1 15.59 10.36 26.05 27.71 28.68 46.17 3.97 24.67-6.46 51.38-26.98 65.93-13.95 10.21-32.41 14.04-49.24 9.95-16.9-3.8-31.53-15.4-40.17-30.27-14.02-23.68-12.19-55.7 4.8-77.42 10.36-13.59 26.33-23.05 43.47-24.46m-.75 2.51c-10.49 1.12-20.61 5.26-28.98 11.66-12.16 9.15-20.6 22.89-23.87 37.7-3.28 15.26-1.48 31.71 5.72 45.62 6.51 12.88 17.48 23.53 30.81 29.19 12.15 5.23 26.12 6.1 38.81 2.34 14.36-4.13 26.76-14.03 34.63-26.65 9.13-14.64 12.35-32.88 8.62-49.74-2.94-14.3-10.76-27.59-22.04-36.89-11.99-10.05-28.13-15.06-43.7-13.23z"/><path d="M460.86 222.04c.08-2.58 2.28-5.58 5.13-4.76 2.15.4 2.54 2.86 2.94 4.64 3.6 18.57 10.73 36.41 20.68 52.49 1.16 2.03 2.52 3.94 4.04 5.73 3.09-9.74 5.47-19.71 6.83-29.84.64-4.29 7.74-4.65 8.45-.26 2.31 16.57 1.89 33.43.75 50.08.79 1.78 2.45 2.97 3.75 4.38 22.82 23.04 51.52 39.52 81.69 50.99 20.36 7.73 41.47 13.39 62.87 17.4 25.65 4.63 52.06 6.84 77.97 3.04 20.1-2.82 39.9-9.69 56.44-21.62 19.41-13.87 33.56-34.62 40.09-57.5.34-2.09 2.16-4.09 4.44-3.6 1.87.13 3.01 1.83 3.25 3.55 2.02 10.91 3.22 22.16 1.35 33.19-2.6 16.92-11.63 32.12-22.66 44.93-21.85 24.94-50.16 43-78.68 59.36-11.4 7.47-23.52 16.16-28.6 29.34-4.99 18.2-8.27 36.83-11.58 55.39-6.41 39.98-10.67 80.53-8.7 121.05.41 7.28.41 14.77 2.94 21.71L742.23 822c1.51 3.14-2.09 6.31-5.11 5.01-2.23-1.9-3.52-4.62-5.17-6.99L622.11 654.04c-.62-1.66-2.73-2.54-3.39-.4L521.2 833.13c-1.24 2.1-2.14 4.47-3.83 6.27-2.76 2.34-7.31-.98-5.77-4.34 10.9-39.8 20.85-79.85 29.67-120.16 10.33-47.22 19.35-94.78 25.33-142.76 2.56-20.65 4.39-41.38 5.2-62.17.35-22.37.5-45.06-4.93-66.92-2.59-9.6-6.13-19.45-13.27-26.64-20.55-20.14-38.9-42.5-54.81-66.47-10.29 29.75-26.58 57.16-46.27 81.63-6.6 8.31-13.61 16.29-20.57 24.29-3.99 4.38-6.5 9.81-8.99 15.12-4.6 10.32-8.02 21.13-10.87 32.05-4.29 14.83-3.81 30.46-4.2 45.71l51.13 268.29c.58 3.61 1.92 7.23 1.52 10.93-.89 3.73-6.67 4.31-8.12.64l-86.9-161.17c-.49-1.77-2.86-3.04-3.95-1.04l-99.36 163.86c-2.14 4.56-9.79 1.49-8.04-3.32l45.18-194.4c4.9-37.66-3.81-76.54-22.25-109.56-14.17-25.39-34.17-47.25-57.13-64.96-22-16.61-41.61-37.18-53.98-62.03-5.51-11.24-9.68-23.42-10.31-36-.17-6.01.2-12.53 3.73-17.62 2.31-2.81 7.35-.99 7.44 2.6 1.49 10.58 7.75 19.72 14.65 27.57 16.86 18.48 39.81 30.34 63.5 37.57 30.04 9.18 61.84 11.17 93.06 9.41 20.53-1.63 40.83-6.94 59.21-16.31 36.11-18.28 63.67-50.46 81.4-86.37-1-3.5-3.26-6.52-4.68-9.87-13.37-25.89-18.16-56.2-13.13-84.92m1.88 3.77c-4.63 29.79 2.13 60.72 16.87 86.83l1.03.29c4.26-8.4 7.65-17.21 10.87-26.05.34-1.47 1.49-3.23.31-4.62-12.2-17.86-21.06-38.12-25.16-59.4-.21-1.38-.91-2.6-1.55-3.81-2.03 1.68-1.97 4.39-2.37 6.76m39.97 25.52c-2 15.26-6.51 30.09-11.98 44.44-8.2 21.08-19.12 41.17-32.91 59.13-18.54 24.18-42.84 44.42-71.29 55.79-19.79 8.11-41.22 11.65-62.55 11.8-28.09.42-56.49-2.48-83.29-11.22-21.64-7.11-42.47-18.1-58.53-34.51-8.36-8.86-15.99-19.34-17.78-31.69.16-2.05-3.23-2.29-3.7-.43-2.34 4.38-2.56 9.48-2.52 14.34.1 9.98 3.01 19.69 6.75 28.87 9.48 22.46 25.3 41.79 43.56 57.73 7.01 6.35 14.89 11.66 22.02 17.89 16.25 13.79 30.74 29.76 42.29 47.7 20.63 31.79 31.7 69.92 30.26 107.85-.25 14.32-4.89 28-7.8 41.9l-38.69 166.16c-1.11 2.15 1.39 3.65 3.16 2.53 1.61-2.1 2.78-4.49 4.19-6.71l95.45-157.54c1.5-3.33 6.87-2.93 8.05.5l86.4 160.35c.68 1.07 1.44 3.14 3.15 2.29 2.3-.03 1-2.85.99-4.18l-52.47-275.23c-.42-4.37.13-8.76.18-13.13.59-9.38.59-18.87 2.74-28.07 2.9-11.79 6.31-23.5 11.01-34.72 3.14-7.33 6.59-14.74 12.18-20.56 24.12-26.88 46.11-56.34 59.8-90 14.72-35.5 20.11-74.91 15.03-113.02l-2.58-.42c-.49.67-.86 1.39-1.12 2.16m331.76 47.34c-7.3 24.69-23.39 46.77-45.11 60.68-16.03 10.41-34.59 16.35-53.41 19.1-26.59 3.66-53.66 1.51-79.93-3.46-21.77-4.17-43.25-10.02-63.93-18.04-30.81-11.91-59.81-29.34-82.91-53.15-1.72 13.23-4.26 26.37-8.27 39.11-.58 1.95-1.47 4.26.09 6.02 14.4 21.47 30.59 41.79 48.81 60.16 3.49 3.55 7.26 6.88 10.03 11.07 5.46 8.07 8.42 17.53 10.48 26.97 4.54 21.96 4.45 44.53 3.8 66.84-1.16 24.8-3.72 49.51-7.14 74.09-6.02 43.29-14.3 86.23-23.66 128.91-8.77 39.6-18.4 79.02-29.24 118.11-.52 1.02-.08 3.28 1.47 2.56 1.71-1.77 2.56-4.17 3.79-6.26l97.23-178.83c.68-1.4 1.84-2.53 3.41-2.86 3.32.25 4.53 3.76 6.24 6.07l110.69 167.35c.6 1.09 1.64 1.78 2.9 1.9-.05-1.44.01-2.88-.42-4.25l-48.51-161.68c-1.46-5.25-1.38-10.75-1.93-16.13-1.94-35.38.92-70.84 5.84-105.88 3.4-23.53 7.66-46.96 13.27-70.07 1.18-5.44 3.72-10.49 7.2-14.81 9.05-11.27 21.47-19.1 33.96-26.03 17.1-10.11 33.75-21.14 48.83-34.12 14.44-12.39 27.73-26.84 35.64-44.34 6.77-14.49 7.54-31.06 4.73-46.62-.47-1.78-.26-3.9-1.44-5.39-1.81-.96-1.92 1.96-2.51 2.98zm-526.35-1.46c11.5-2.03 23.71-.1 33.88 5.71 12.47 6.86 21.72 19.26 24.74 33.17 2.68 11.72.97 24.38-4.71 34.99-7.38 13.91-21.51 24.13-37.15 26.33-13.45 2.22-27.72-1.45-38.54-9.72-11.76-8.84-19.32-23-20.05-37.7-.69-11.91 3.07-23.99 10.29-33.47 7.6-10.07 19.09-17.16 31.54-19.31m5.52 1.68c-9.09.71-18 3.9-25.32 9.37-11.87 8.69-19.45 23-19.66 37.74-.39 11.62 3.73 23.3 11.2 32.19 8.57 10.43 21.68 16.91 35.17 17.39 11.02.5 22.18-2.85 31-9.5 12.8-9.3 20.33-25.25 19.57-41.03-.61-12.02-5.73-23.84-14.43-32.21-9.67-9.84-23.81-14.95-37.53-13.95zm26.37 579.36c41.76-5.19 84.46-3.56 125.54 5.78l-126.53.13c-10.43-.08-20.87.1-31.29-.14 10.64-2.5 21.43-4.41 32.28-5.77zm196.41 5.79c24.77-5.61 50.16-8.57 75.56-8.64 27.69-.28 55.48 2.36 82.45 8.69-13.46.5-26.94.08-40.41.19-36.71.03-73.41-.07-110.11-.02-2.5 0-5-.14-7.49-.22z"/></g><path d="M652.44 210.71c15.57-1.83 31.71 3.18 43.7 13.23 11.28 9.3 19.1 22.59 22.04 36.89 3.73 16.86.51 35.1-8.62 49.74-7.87 12.62-20.27 22.52-34.63 26.65-12.69 3.76-26.66 2.89-38.81-2.34-13.33-5.66-24.3-16.31-30.81-29.19-7.2-13.91-9-30.36-5.72-45.62 3.27-14.81 11.71-28.55 23.87-37.7 8.37-6.4 18.49-10.54 28.98-11.66zm-189.7 15.1c.4-2.37.34-5.08 2.37-6.76.64 1.21 1.34 2.43 1.55 3.81 4.1 21.28 12.96 41.54 25.16 59.4 1.18 1.39.03 3.15-.31 4.62-3.22 8.84-6.61 17.65-10.87 26.05-.26-.08-.77-.22-1.03-.29-14.74-26.11-21.5-57.04-16.87-86.83zm371.73 72.86c.59-1.02.7-3.94 2.51-2.98 1.18 1.49.97 3.61 1.44 5.39 2.81 15.56 2.04 32.13-4.73 46.62-7.91 17.5-21.2 31.95-35.64 44.34-15.08 12.98-31.73 24.01-48.83 34.12-12.49 6.93-24.91 14.76-33.96 26.03-3.48 4.32-6.02 9.37-7.2 14.81-5.61 23.11-9.87 46.54-13.27 70.07-4.92 35.04-7.78 70.5-5.84 105.88.55 5.38.47 10.88 1.93 16.13l48.51 161.68c.43 1.37.37 2.81.42 4.25-1.26-.12-2.3-.81-2.9-1.9L626.22 655.76c-1.71-2.31-2.92-5.82-6.24-6.07-1.57.33-2.73 1.46-3.41 2.86l-97.23 178.83c-1.23 2.09-2.08 4.49-3.79 6.26-1.55.72-1.99-1.54-1.47-2.56 10.84-39.09 20.47-78.51 29.24-118.11 9.36-42.68 17.64-85.62 23.66-128.91 3.42-24.58 5.98-49.29 7.14-74.09.65-22.31.74-44.88-3.8-66.84-2.06-9.44-5.02-18.9-10.48-26.97-2.77-4.19-6.54-7.52-10.03-11.07-18.22-18.37-34.41-38.69-48.81-60.16-1.56-1.76-.67-4.07-.09-6.02 4.01-12.74 6.55-25.88 8.27-39.11 23.1 23.81 52.1 41.24 82.91 53.15 20.68 8.02 42.16 13.87 63.93 18.04 26.27 4.97 53.34 7.12 79.93 3.46 18.82-2.75 37.38-8.69 53.41-19.1 21.72-13.91 37.81-35.99 45.11-60.68z" fill="#f179aa"/><path d="M502.71 251.33c.26-.77.63-1.49 1.12-2.16l2.58.42c5.08 38.11-.31 77.52-15.03 113.02-13.69 33.66-35.68 63.12-59.8 90-5.59 5.82-9.04 13.23-12.18 20.56-4.7 11.22-8.11 22.93-11.01 34.72-2.15 9.2-2.15 18.69-2.74 28.07-.05 4.37-.6 8.76-.18 13.13l52.47 275.23c.01 1.33 1.31 4.15-.99 4.18-1.71.85-2.47-1.22-3.15-2.29l-86.4-160.35c-1.18-3.43-6.55-3.83-8.05-.5L263.9 822.9c-1.41 2.22-2.58 4.61-4.19 6.71-1.77 1.12-4.27-.38-3.16-2.53l38.69-166.16c2.91-13.9 7.55-27.58 7.8-41.9 1.44-37.93-9.63-76.06-30.26-107.85-11.55-17.94-26.04-33.91-42.29-47.7-7.13-6.23-15.01-11.54-22.02-17.89-18.26-15.94-34.08-35.27-43.56-57.73-3.74-9.18-6.65-18.89-6.75-28.87-.04-4.86.18-9.96 2.52-14.34.47-1.86 3.86-1.62 3.7.43 1.79 12.35 9.42 22.83 17.78 31.69 16.06 16.41 36.89 27.4 58.53 34.51 26.8 8.74 55.2 11.64 83.29 11.22 21.33-.15 42.76-3.69 62.55-11.8 28.45-11.37 52.75-31.61 71.29-55.79 13.79-17.96 24.71-38.05 32.91-59.13 5.47-14.35 9.98-29.18 11.98-44.44zm-189.07 47.56c13.72-1 27.86 4.11 37.53 13.95 8.7 8.37 13.82 20.19 14.43 32.21.76 15.78-6.77 31.73-19.57 41.03-8.82 6.65-19.98 10-31 9.5-13.49-.48-26.6-6.96-35.17-17.39-7.47-8.89-11.59-20.57-11.2-32.19.21-14.74 7.79-29.05 19.66-37.74 7.32-5.47 16.23-8.66 25.32-9.37z" fill="#2e3092"/><path fill="#221f1f" d="M346.91 836.29c20.85-5.39 42.59-7.22 64.04-5.38 32.56 3.05 64.66 15.06 90.05 35.89 25.89-21.25 58.74-33.32 91.98-36.06 15.04-1.01 30.24-.6 45.11 2.01 13.45 2.09 26.45 6.29 39.8 8.9 32.6 6.93 65.84 10.62 99.13 11.69 19.2.47 38.45.26 57.58-1.6 10.04 10.4 19.62 21.31 29.36 32.03-4.27.94-8.64.49-12.95.55-31.69.03-63.37-.02-95.06-.01-20.5-.13-41.02.24-61.52-.22-26.97-6.33-54.76-8.97-82.45-8.69-25.4.07-50.79 3.03-75.56 8.64-16.8.47-33.62.14-50.42.22-6.82-.09-13.65.23-20.45-.23-41.08-9.34-83.78-10.97-125.54-5.78-10.85 1.36-21.64 3.27-32.28 5.77-53.9.47-107.8-.02-161.7.2-2.67.05-5.33-.17-7.97-.57l29.06-31.94c33.22 3.08 66.73 2.11 99.9-1.17 26.93-2.75 53.67-7.46 79.89-14.25z"/><path fill="#b63f36" d="M137.52 883.57l.54.08c2.64.4 5.3.62 7.97.57l161.7-.2c10.42.24 20.86.06 31.29.14l126.53-.13c6.8.46 13.63.14 20.45.23l50.42-.22 7.49.22 110.11.02c13.47-.11 26.95.31 40.41-.19 20.5.46 41.02.09 61.52.22l95.06.01c4.31-.06 8.68.39 12.95-.55l.45-.08c.36 2.58.4 5.19.04 7.78l-657.49-.4c-23.23-.45-46.47.02-69.7-.25-.13-2.43-.06-4.86.26-7.25z"/></svg>